<svg width="20" height="20" viewBox="0 0 20 20" fill="none" xmlns="http://www.w3.org/2000/svg">
<path d="M9.9996 17.8166L15.5683 20L15.5679 12.3706C18.2393 11.1555 20 9.09422 20 6.75912C20 3.03178 15.5135 0 10 0C4.48654 0 0 3.03251 0 6.75912C0 9.09422 1.76151 11.1556 4.43211 12.3706V19.996L9.9996 17.8166ZM14.8001 19.0991L9.9996 17.2165L5.19907 19.0958V12.6861C6.62484 13.2162 8.26062 13.5185 9.9996 13.5185C11.739 13.5185 13.3744 13.2159 14.8001 12.6861V19.0991ZM0.766768 6.75906C0.766768 3.31811 4.90928 0.518669 9.99931 0.518669C15.0893 0.518669 19.2318 3.31864 19.2318 6.75906C19.2322 10.1995 15.0905 12.9997 9.9997 12.9997C8.24053 12.9997 6.60056 12.6592 5.19917 12.0795V12.0535H5.13554C2.51752 10.9505 0.766768 8.99296 0.766768 6.75906Z" fill="black"/>
</svg>
