<svg width="14" height="20" viewBox="0 0 14 20" fill="none" xmlns="http://www.w3.org/2000/svg">
<path d="M12.4703 13.5033C11.1152 12.3357 10.2844 11.6173 9.75985 11.198C10.5905 9.82079 11.1149 7.81495 11.1149 5.83881C11.1149 2.45572 9.54123 0.000732422 7.35535 0.000732422C5.16947 0.000732422 3.59576 2.45572 3.59576 5.83881C3.59576 7.75481 4.09842 9.73094 4.88547 11.1082C4.31721 11.5274 3.42104 12.2459 2.00018 13.5033C1.08215 14.3415 0.557617 15.7487 0.557617 17.3056V18.4732C0.557617 19.3114 1.03841 20.0001 1.65054 20.0001H12.9073C13.4974 20.0001 14.0002 19.3116 14.0002 18.4732V17.3056C13.9565 15.7487 13.3882 14.3116 12.4702 13.5033H12.4703ZM12.6887 18.2936H1.78165V17.3056C1.78165 16.3476 2.13145 15.4495 2.65595 14.9404C4.03292 13.7429 5.71613 12.3656 6.06578 12.1859C6.2844 12.126 6.48116 11.8865 6.54657 11.587C6.61216 11.2576 6.52471 10.8985 6.32795 10.659C5.45365 9.70099 4.86352 7.72486 4.86352 5.83881C4.86352 3.38382 5.86902 1.73709 7.35531 1.73709C8.8416 1.73709 9.8471 3.38382 9.8471 5.83881C9.8471 7.78476 9.21329 9.79084 8.33894 10.7189C8.14218 10.9285 8.05473 11.2579 8.09846 11.587C8.14218 11.8865 8.31708 12.126 8.51384 12.2456C8.79805 12.4253 10.3936 13.7426 11.7706 14.9701C12.317 15.4792 12.6668 16.3773 12.6668 17.3353V18.2936H12.6887Z" fill="#10B981"/>
</svg>
