<svg width="12" height="12" viewBox="0 0 12 12" fill="none" xmlns="http://www.w3.org/2000/svg">
<path d="M5.99984 0.664062C4.5853 0.664062 3.22881 1.22559 2.22861 2.22513C1.22841 3.22467 0.666504 4.58026 0.666504 5.99386C0.666504 7.40729 1.22841 8.76304 2.22861 9.76246C3.22881 10.762 4.5853 11.3235 5.99984 11.3235C7.41421 11.3235 8.77086 10.762 9.77094 9.76246C10.7711 8.76309 11.333 7.40733 11.333 5.99386C11.333 4.58026 10.7711 3.22467 9.77094 2.22513C8.7709 1.22559 7.41425 0.664062 5.99984 0.664062ZM5.99984 9.99114C4.93891 9.99114 3.92152 9.57013 3.1714 8.82034C2.42128 8.07072 1.99983 7.054 1.99983 5.99395C1.99983 4.93373 2.42128 3.91701 3.1714 3.16738C3.92151 2.41776 4.93891 1.99659 5.99984 1.99659C7.0606 1.99659 8.07799 2.41776 8.82811 3.16738C9.5784 3.91701 9.99968 4.93373 9.99968 5.99395C9.99968 7.054 9.57839 8.07072 8.82811 8.82034C8.07799 9.57014 7.0606 9.99114 5.99984 9.99114Z" fill="white"/>
</svg>
