<svg width="36" height="36" viewBox="0 0 36 36" fill="none" xmlns="http://www.w3.org/2000/svg">
<path d="M24.4755 18.5595C26.1975 16.6407 27.2801 13.8854 27.2801 10.8843C27.2801 4.98027 23.1473 0.20752 18.0798 0.20752C13.0123 0.20752 8.87949 4.98008 8.87949 10.8843C8.87949 13.8853 9.96172 16.5914 11.6841 18.5595C5.23838 20.3799 0.859863 24.7587 0.859863 28.6454V33.1716C0.859863 34.2538 1.74564 35.1396 2.82783 35.1396H33.2341C34.3163 35.1396 35.202 34.2538 35.202 33.1716V28.645C35.2017 24.7586 30.8231 20.3797 24.4765 18.5591L24.4755 18.5595ZM18.0302 4.14346C20.9332 4.14346 23.2944 7.19365 23.2944 10.884C23.2944 14.6231 20.9327 17.6245 18.0302 17.6245C15.1271 17.6245 12.7659 14.5743 12.7659 10.884C12.7659 7.19404 15.1276 4.14346 18.0302 4.14346ZM31.2645 30.7118C31.2645 31.0071 31.0677 31.2039 30.7725 31.2039L5.2871 31.2035C4.99185 31.2035 4.795 31.0067 4.795 30.7114V28.645C4.795 26.2341 9.96082 21.6096 18.0294 21.6096C26.0979 21.6096 31.2638 26.2345 31.2638 28.645L31.2645 30.7118Z" fill="black"/>
</svg>
