<svg width="10" height="20" viewBox="0 0 10 20" fill="none" xmlns="http://www.w3.org/2000/svg">
<path d="M5.77033 10.6585C4.89603 9.7005 4.3059 7.72436 4.3059 5.83832C4.3059 3.38333 5.3114 1.73659 6.79769 1.73659C7.6283 1.73659 8.30585 2.24565 8.74308 3.11384C8.89612 2.51495 9.09288 1.94624 9.33321 1.4072C8.67753 0.509099 7.80319 0 6.79773 0C4.61185 0 3.03814 2.45499 3.03814 5.83808C3.03814 7.75408 3.5408 9.73021 4.32785 11.1075C3.75959 11.5267 2.86343 12.2452 1.44256 13.5026C0.524528 14.3408 0 15.748 0 17.3049V18.4725C0 19.3107 0.480796 19.9994 1.09292 19.9994H5.66139C5.48649 19.5502 5.37718 19.0115 5.37718 18.4725V18.2629L1.22404 18.2631V17.2751C1.22404 16.3171 1.57383 15.419 2.09834 14.9099C3.4753 13.7124 5.15852 12.3352 5.50816 12.1555C5.72678 12.0956 5.92354 11.856 5.98895 11.5566C6.05471 11.2573 5.96726 10.898 5.7705 10.6585L5.77033 10.6585Z" fill="#10B981"/>
</svg>
