<svg width="18" height="18" viewBox="0 0 18 18" fill="none" xmlns="http://www.w3.org/2000/svg">
<path d="M12.238 9.27974C13.099 8.32036 13.6403 6.94268 13.6403 5.44214C13.6403 2.49014 11.5739 0.10376 9.04014 0.10376C6.5064 0.10376 4.43999 2.49004 4.43999 5.44214C4.43999 6.94263 4.9811 8.2957 5.84229 9.27974C2.61943 10.1899 0.430176 12.3793 0.430176 14.3227V16.5858C0.430176 17.1269 0.873062 17.5698 1.41416 17.5698H16.6173C17.1584 17.5698 17.6013 17.1269 17.6013 16.5858V14.3225C17.6011 12.3793 15.4118 10.1898 12.2385 9.27954L12.238 9.27974ZM9.01533 2.07173C10.4668 2.07173 11.6475 3.59683 11.6475 5.44199C11.6475 7.31157 10.4666 8.81225 9.01533 8.81225C7.56382 8.81225 6.3832 7.28716 6.3832 5.44199C6.3832 3.59702 7.56406 2.07173 9.01533 2.07173ZM15.6325 15.3559C15.6325 15.5035 15.5341 15.602 15.3865 15.602L2.64379 15.6018C2.49617 15.6018 2.39774 15.5033 2.39774 15.3557V14.3225C2.39774 13.117 4.98065 10.8048 9.01493 10.8048C13.0492 10.8048 15.6321 13.1172 15.6321 14.3225L15.6325 15.3559Z" fill="white"/>
</svg>
