<svg width="31" height="34" viewBox="0 0 31 34" fill="none" xmlns="http://www.w3.org/2000/svg">
<path d="M26.8772 22.7565C23.827 20.8377 21.957 19.6571 20.7764 18.9681C22.646 16.7048 23.8266 13.4085 23.8266 10.1611C23.8266 4.60151 20.2843 0.567139 15.3641 0.567139C10.4438 0.567139 6.90156 4.60151 6.90156 10.1611C6.90156 13.3097 8.03301 16.5572 9.80459 18.8205C8.52549 19.5094 6.5083 20.6901 3.31006 22.7565C1.24365 24.1339 0.0629883 26.4464 0.0629883 29.0049V30.9237C0.0629883 32.3011 1.14522 33.433 2.52305 33.433H27.8609C29.1893 33.433 30.321 32.3015 30.321 30.9237V29.0049C30.2226 26.4464 28.9436 24.0847 26.8771 22.7565H26.8772ZM27.369 30.6285H2.81818V29.0049C2.81818 27.4306 3.60554 25.9547 4.78615 25.1181C7.88557 23.1501 11.6743 20.8869 12.4613 20.5916C12.9534 20.4931 13.3963 20.0995 13.5436 19.6074C13.6912 19.0661 13.4944 18.4759 13.0515 18.0823C11.0835 16.508 9.75519 13.2605 9.75519 10.1611C9.75519 6.12671 12.0185 3.42056 15.364 3.42056C18.7095 3.42056 20.9728 6.12671 20.9728 10.1611C20.9728 13.3589 19.5461 16.6556 17.578 18.1807C17.1351 18.5252 16.9383 19.0665 17.0367 19.6074C17.1351 20.0995 17.5288 20.4931 17.9717 20.6896C18.6114 20.9849 22.203 23.1497 25.3024 25.1669C26.5323 26.0035 27.3196 27.4794 27.3196 29.0538V30.6285H27.369Z" fill="black"/>
</svg>
