<svg width="14" height="20" viewBox="0 0 14 20" fill="none" xmlns="http://www.w3.org/2000/svg">
<path d="M12.4703 13.5034C11.1152 12.3358 10.2844 11.6173 9.75985 11.1981C10.5905 9.82081 11.1149 7.81496 11.1149 5.83882C11.1149 2.45572 9.54123 0.000732422 7.35535 0.000732422C5.16947 0.000732422 3.59576 2.45572 3.59576 5.83882C3.59576 7.75482 4.09842 9.73096 4.88547 11.1082C4.31721 11.5274 3.42104 12.2459 2.00018 13.5034C1.08214 14.3416 0.557617 15.7488 0.557617 17.3056V18.4732C0.557617 19.3114 1.03841 20.0002 1.65054 20.0002H12.9073C13.4974 20.0002 14.0002 19.3117 14.0002 18.4732V17.3056C13.9565 15.7488 13.3882 14.3116 12.4702 13.5034H12.4703ZM12.6887 18.2936H1.78165V17.3056C1.78165 16.3476 2.13145 15.4495 2.65595 14.9404C4.03292 13.7429 5.71613 12.3657 6.06577 12.186C6.2844 12.1261 6.48115 11.8865 6.54657 11.5871C6.61216 11.2577 6.52471 10.8986 6.32795 10.659C5.45365 9.70101 4.86352 7.72487 4.86352 5.83882C4.86352 3.38383 5.86902 1.73709 7.35531 1.73709C8.8416 1.73709 9.8471 3.38383 9.8471 5.83882C9.8471 7.78477 9.21328 9.79086 8.33894 10.7189C8.14218 10.9285 8.05473 11.2579 8.09846 11.5871C8.14218 11.8865 8.31708 12.1261 8.51384 12.2456C8.79804 12.4253 10.3936 13.7426 11.7706 14.9702C12.317 15.4792 12.6668 16.3774 12.6668 17.3354V18.2936H12.6887Z" fill="white"/>
</svg>
