<svg width="20" height="20" viewBox="0 0 20 20" fill="none" xmlns="http://www.w3.org/2000/svg">
<path d="M9.96362 0.00292462C9.92667 0.0096828 9.89188 0.0261812 9.86195 0.0510279L0.0969167 7.99842C0.0145323 8.06382 -0.0200792 8.18029 0.0116479 8.28664C0.0431946 8.39298 0.133508 8.46434 0.234998 8.46315H3.25754V19.7436C3.25754 19.8851 3.36156 20 3.49009 20H16.51C16.6383 20 16.7424 19.8851 16.7424 19.7436V14.3598C16.7433 14.2913 16.7193 14.2251 16.6755 14.1764C16.6318 14.1275 16.5722 14.0998 16.51 14.0998C16.4476 14.0998 16.3881 14.1275 16.3443 14.1764C16.3007 14.2251 16.2765 14.2913 16.2774 14.3598V19.4871H12.3249V11.5397C12.3249 11.3982 12.2209 11.2833 12.0924 11.2833H7.90743C7.89283 11.2819 7.87823 11.2819 7.86381 11.2833C7.75258 11.3068 7.6729 11.4149 7.67488 11.5397V19.4871H3.72235V8.20669C3.72235 8.06516 3.61834 7.95047 3.48998 7.95047H0.946968L9.99993 0.579618L19.0529 7.95047H16.51C16.3815 7.95047 16.2775 8.06516 16.2775 8.20669V12.8214C16.2766 12.89 16.3007 12.9562 16.3444 13.0051C16.3882 13.054 16.4476 13.0814 16.51 13.0814C16.5722 13.0814 16.6319 13.054 16.6755 13.0051C16.7193 12.9562 16.7433 12.89 16.7424 12.8214V8.46315H19.7649C19.8664 8.46435 19.9567 8.39299 19.9885 8.28664C20.02 8.1803 19.9854 8.06382 19.903 7.99842L10.138 0.0510279C10.088 0.00988189 10.0253 -0.00740984 9.96362 0.00292462ZM8.14002 11.7958H11.86V19.4867H8.14002V11.7958Z" fill="white"/>
</svg>
