<svg width="20" height="20" viewBox="0 0 20 20" fill="none" xmlns="http://www.w3.org/2000/svg">
<path d="M19.5311 18.6131H17.6548V3.87287C17.6548 3.46814 17.4415 3.1793 17.1431 3.1793H14.0726V0.693563C14.0726 0.288841 13.8593 0 13.5609 0H10.0215C9.72292 0 9.50982 0.289128 9.50982 0.693563V1.21388H6.95125V0.693563C6.95125 0.288841 6.73795 0 6.43958 0H2.90016C2.60158 0 2.38848 0.289128 2.38848 0.693563V18.6126L0.511676 18.6129C0.213093 18.6129 0 18.902 0 19.3064C0 19.7112 0.213304 20 0.511676 20H19.4883C19.7869 20 20 19.7109 20 19.3064C20.0002 18.9017 19.8296 18.6129 19.5311 18.6129L19.5311 18.6131ZM3.41156 7.63026H5.97013V12.4279H3.41156V7.63026ZM5.97035 1.38757V6.24281H3.41178V1.38728L5.97035 1.38757ZM3.41156 13.7575H5.97013V18.613H3.41156V13.7575ZM6.9512 2.60136H9.50976V18.6127H6.9512V2.60136ZM10.5334 1.90751V1.3872H13.0919V18.613H10.5334V1.90751ZM14.0728 18.6127V4.5664H16.6313V18.6127H14.0728Z" fill="white"/>
</svg>
