<svg width="8" height="8" viewBox="0 0 8 8" fill="none" xmlns="http://www.w3.org/2000/svg">
<mask id="path-1-inside-1_67_116" fill="white">
<path d="M4.00542 0.0244141C1.8115 0.0244141 0.0244141 1.8115 0.0244141 3.99934C0.0244141 6.19326 1.8115 7.98034 4.00542 7.98034C6.19933 7.98034 7.98034 6.19326 7.98034 3.99934C7.98034 1.80542 6.19933 0.0244141 4.00542 0.0244141ZM4.00542 7.48715C2.0828 7.48715 0.517358 5.92195 0.517358 3.99909C0.517358 2.07648 2.08255 0.517108 4.00542 0.517108C5.92803 0.517108 7.4874 2.0823 7.4874 3.99909C7.4874 5.92195 5.92828 7.48715 4.00542 7.48715Z"/>
</mask>
<path d="M4.00542 0.0244141C1.8115 0.0244141 0.0244141 1.8115 0.0244141 3.99934C0.0244141 6.19326 1.8115 7.98034 4.00542 7.98034C6.19933 7.98034 7.98034 6.19326 7.98034 3.99934C7.98034 1.80542 6.19933 0.0244141 4.00542 0.0244141ZM4.00542 7.48715C2.0828 7.48715 0.517358 5.92195 0.517358 3.99909C0.517358 2.07648 2.08255 0.517108 4.00542 0.517108C5.92803 0.517108 7.4874 2.0823 7.4874 3.99909C7.4874 5.92195 5.92828 7.48715 4.00542 7.48715Z" fill="black"/>
<path d="M4.00542 0.0244141V-2.97559C0.157626 -2.97559 -2.97559 0.151666 -2.97559 3.99934H0.0244141H3.02441C3.02441 3.47133 3.46537 3.02441 4.00542 3.02441V0.0244141ZM0.0244141 3.99934H-2.97559C-2.97559 7.85011 0.154644 10.9803 4.00542 10.9803V7.98034V4.98034C3.46836 4.98034 3.02441 4.5364 3.02441 3.99934H0.0244141ZM4.00542 7.98034V10.9803C7.86215 10.9803 10.9803 7.84414 10.9803 3.99934H7.98034H4.98034C4.98034 4.54237 4.53651 4.98034 4.00542 4.98034V7.98034ZM7.98034 3.99934H10.9803C10.9803 0.148572 7.85619 -2.97559 4.00542 -2.97559V0.0244141V3.02441C4.54248 3.02441 4.98034 3.46228 4.98034 3.99934H7.98034ZM4.00542 7.48715V4.48715C3.73952 4.48715 3.51736 4.26496 3.51736 3.99909H0.517358H-2.48264C-2.48264 7.57895 0.426088 10.4872 4.00542 10.4872V7.48715ZM0.517358 3.99909H3.51736C3.51736 3.74 3.73274 3.51711 4.00542 3.51711V0.517108V-2.48289C0.432371 -2.48289 -2.48264 0.41296 -2.48264 3.99909H0.517358ZM4.00542 0.517108V3.51711C4.26791 3.51711 4.4874 3.73589 4.4874 3.99909H7.4874H10.4874C10.4874 0.428716 7.58815 -2.48289 4.00542 -2.48289V0.517108ZM7.4874 3.99909H4.4874C4.4874 4.27191 4.26462 4.48715 4.00542 4.48715V7.48715V10.4872C7.59194 10.4872 10.4874 7.57199 10.4874 3.99909H7.4874Z" fill="black" mask="url(#path-1-inside-1_67_116)"/>
</svg>
