<svg width="30" height="30" viewBox="0 0 30 30" fill="none" xmlns="http://www.w3.org/2000/svg">
<mask id="path-1-inside-1_67_114" fill="white">
<path d="M25.6115 4.39397C22.7766 1.55906 19.0112 0 15.0055 0C11 0.000244624 7.22838 1.55931 4.40011 4.39397C1.57133 7.22888 0 10.9943 0 15C0 19.0057 1.55912 22.7771 4.39397 25.606C7.22888 28.4409 10.9943 30 15 30C19.0057 30 22.7709 28.4409 25.606 25.606C28.4412 22.7712 30 19.0057 30 15C30.0059 10.9943 28.4407 7.22913 25.6119 4.39397H25.6115ZM15.0055 29.5128C7.00668 29.5128 0.499018 23.0051 0.499018 15.0056C0.499018 7.00681 7.00668 0.499144 15.0055 0.499144C23.0043 0.499144 29.512 7.00681 29.512 15.0056C29.5122 22.9982 23.0043 29.5128 15.0055 29.5128Z"/>
</mask>
<path d="M25.6115 4.39397C22.7766 1.55906 19.0112 0 15.0055 0C11 0.000244624 7.22838 1.55931 4.40011 4.39397C1.57133 7.22888 0 10.9943 0 15C0 19.0057 1.55912 22.7771 4.39397 25.606C7.22888 28.4409 10.9943 30 15 30C19.0057 30 22.7709 28.4409 25.606 25.606C28.4412 22.7712 30 19.0057 30 15C30.0059 10.9943 28.4407 7.22913 25.6119 4.39397H25.6115ZM15.0055 29.5128C7.00668 29.5128 0.499018 23.0051 0.499018 15.0056C0.499018 7.00681 7.00668 0.499144 15.0055 0.499144C23.0043 0.499144 29.512 7.00681 29.512 15.0056C29.5122 22.9982 23.0043 29.5128 15.0055 29.5128Z" fill="black"/>
<path d="M25.6115 4.39397L23.4902 6.51529L24.3689 7.39397H25.6115V4.39397ZM15.0055 0V-3H15.0053L15.0055 0ZM4.40011 4.39397L6.52372 6.51299L6.52382 6.5129L4.40011 4.39397ZM4.39397 25.606L6.51529 23.4847L6.51306 23.4825L4.39397 25.606ZM30 15L27 14.9956V15H30ZM25.6119 4.39397L27.7356 2.27504L26.8565 1.39397H25.6119V4.39397ZM29.512 15.0056H26.512V15.0057L29.512 15.0056ZM25.6115 4.39397L27.7328 2.27265C24.3354 -1.12484 19.8069 -3 15.0055 -3V0V3C18.2155 3 21.2179 4.24296 23.4902 6.51529L25.6115 4.39397ZM15.0055 0L15.0053 -3C10.2062 -2.99971 5.66963 -1.12585 2.27639 2.27505L4.40011 4.39397L6.52382 6.5129C8.78713 4.24447 11.7938 3.0002 15.0057 3L15.0055 0ZM4.40011 4.39397L2.27649 2.27495C-1.10845 5.66723 -3 10.1927 -3 15H0H3C3 11.7959 4.25111 8.79053 6.52372 6.51299L4.40011 4.39397ZM0 15H-3C-3 19.7996 -1.12596 24.3359 2.27488 27.7296L4.39397 25.606L6.51306 23.4825C4.2442 21.2184 3 18.2118 3 15H0ZM4.39397 25.606L2.27265 27.7274C5.67014 31.1248 10.1986 33 15 33V30V27C11.79 27 8.78762 25.757 6.51529 23.4847L4.39397 25.606ZM15 30V33C19.8015 33 24.3296 31.1247 27.7272 27.7275L25.606 25.606L23.4848 23.4846C21.2121 25.7571 18.2099 27 15 27V30ZM25.606 25.606L27.7272 27.7275C31.1252 24.3299 33 19.8012 33 15H30H27C27 18.2101 25.7572 21.2125 23.4848 23.4846L25.606 25.606ZM30 15L33 15.0044C33.007 10.1969 31.1225 5.66962 27.7356 2.27504L25.6119 4.39397L23.4882 6.5129C25.7588 8.78865 27.0047 11.7916 27 14.9956L30 15ZM25.6119 4.39397V1.39397H25.6115V4.39397V7.39397H25.6119V4.39397ZM15.0055 29.5128V26.5128C8.66362 26.5128 3.49902 21.3483 3.49902 15.0056H0.499018H-2.50098C-2.50098 24.6619 5.34974 32.5128 15.0055 32.5128V29.5128ZM0.499018 15.0056H3.49902C3.49902 8.66366 8.66353 3.49914 15.0055 3.49914V0.499144V-2.50086C5.34982 -2.50086 -2.50098 5.34995 -2.50098 15.0056H0.499018ZM15.0055 0.499144V3.49914C21.3475 3.49914 26.512 8.66366 26.512 15.0056H29.512H32.512C32.512 5.34995 24.6612 -2.50086 15.0055 -2.50086V0.499144ZM29.512 15.0056L26.512 15.0057C26.5122 21.3423 21.3465 26.5128 15.0055 26.5128V29.5128V32.5128C24.6621 32.5128 32.5123 24.6541 32.512 15.0055L29.512 15.0056Z" fill="black" mask="url(#path-1-inside-1_67_114)"/>
</svg>
