<svg width="22" height="34" viewBox="0 0 22 34" fill="none" xmlns="http://www.w3.org/2000/svg">
<path d="M13.2912 18.0819C11.3232 16.5076 9.99492 13.2602 9.99492 10.1607C9.99492 6.12637 12.2582 3.42022 15.6037 3.42022C17.4733 3.42022 18.9984 4.25678 19.9826 5.6835C20.3271 4.69932 20.77 3.76475 21.3109 2.87891C19.8351 1.40303 17.867 0.566406 15.6038 0.566406C10.6836 0.566406 7.14131 4.60078 7.14131 10.1604C7.14131 13.309 8.27275 16.5564 10.0443 18.8197C8.76523 19.5087 6.74805 20.6894 3.5498 22.7558C1.4834 24.1332 0.302734 26.4457 0.302734 29.0042V30.923C0.302734 32.3004 1.38496 33.4322 2.76279 33.4322H13.046C12.6523 32.6941 12.4063 31.8087 12.4063 30.923V30.5785L3.05793 30.5789V28.9553C3.05793 27.381 3.84528 25.9051 5.0259 25.0685C8.12531 23.1005 11.9141 20.8373 12.7011 20.542C13.1932 20.4435 13.6361 20.0499 13.7833 19.5578C13.9313 19.0661 13.7345 18.4755 13.2916 18.0819L13.2912 18.0819Z" fill="black"/>
</svg>
