<svg width="20" height="20" viewBox="0 0 20 20" fill="none" xmlns="http://www.w3.org/2000/svg">
<path d="M18 7.32857C17.8709 7.33171 17.7441 7.29501 17.6367 7.2236C17.5294 7.15203 17.4467 7.04905 17.4 6.92871C17.3517 6.80921 17.3393 6.67812 17.3643 6.55167C17.3891 6.42506 17.4501 6.30852 17.54 6.21596C17.9085 5.84206 18.1151 5.33824 18.1151 4.81357C18.1151 4.28877 17.9085 3.78509 17.54 3.41118L16.5867 2.44503C16.2126 2.07692 15.7084 1.87047 15.1834 1.87047C14.6583 1.87047 14.1541 2.07692 13.7799 2.44503C13.6559 2.55776 13.4938 2.61958 13.326 2.61826C13.1583 2.61677 12.9972 2.55214 12.875 2.43743C12.7527 2.32255 12.6785 2.16601 12.6667 1.99874C12.6667 1.46865 12.456 0.960356 12.0809 0.585481C11.7057 0.210605 11.1971 0 10.6667 0H9.33335C8.8029 0 8.29427 0.210589 7.91914 0.585481C7.54417 0.960373 7.33344 1.46865 7.33344 1.99874C7.32468 2.16751 7.25223 2.32669 7.13066 2.4439C7.00892 2.56126 6.84732 2.62805 6.67825 2.63086C6.50904 2.6335 6.34529 2.57185 6.22009 2.45845C5.84595 2.09017 5.3418 1.88389 4.81678 1.88389C4.29163 1.88389 3.78761 2.09018 3.41346 2.45845L2.44666 3.41123C2.07831 3.78513 1.87172 4.28878 1.87172 4.81362C1.87172 5.33825 2.07831 5.8421 2.44666 6.21601C2.53664 6.30857 2.59768 6.42511 2.62249 6.55172C2.6473 6.67818 2.63489 6.80925 2.58676 6.92877C2.54094 7.04695 2.46022 7.14844 2.35553 7.21969C2.25082 7.29109 2.12677 7.32911 2.00007 7.32861C1.46963 7.32861 0.960994 7.5392 0.585869 7.91393C0.210728 8.28882 0 8.7971 0 9.32719V10.6596C0 11.1897 0.210728 11.698 0.585869 12.0729C0.961011 12.4478 1.46963 12.6584 2.00007 12.6584C2.12909 12.6551 2.25595 12.6918 2.3633 12.7633C2.47081 12.8347 2.55335 12.9377 2.59999 13.0581C2.64829 13.1776 2.6607 13.3086 2.63589 13.4353C2.61091 13.5617 2.54988 13.6784 2.46006 13.7708C2.09154 14.1447 1.88512 14.6485 1.88512 15.1734C1.88512 15.698 2.09154 16.2019 2.46006 16.5758L3.42669 17.5417C3.80083 17.91 4.30498 18.1163 4.83001 18.1163C5.35515 18.1163 5.85917 17.91 6.23332 17.5417C6.32595 17.452 6.44273 17.3908 6.56926 17.366C6.69596 17.3412 6.82696 17.3536 6.94672 17.4019C7.06714 17.4485 7.17001 17.531 7.24164 17.6384C7.31326 17.7457 7.34998 17.8725 7.34667 18.0014C7.34667 18.5315 7.5574 19.0398 7.93254 19.4147C8.30751 19.7894 8.8163 20 9.34674 20H10.6801C11.2105 20 11.7191 19.7894 12.0943 19.4147C12.4692 19.0398 12.68 18.5315 12.68 18.0014C12.6768 17.8725 12.7134 17.7457 12.785 17.6384C12.8566 17.531 12.9597 17.4485 13.0799 17.4019C13.1997 17.3536 13.3308 17.3412 13.4574 17.366C13.5841 17.3908 13.7007 17.452 13.7933 17.5417C14.1675 17.91 14.6714 18.1163 15.1966 18.1163C15.7218 18.1163 16.2258 17.91 16.5999 17.5417L17.5666 16.5758H17.5667C17.9351 16.2019 18.1417 15.698 18.1417 15.1734C18.1417 14.6486 17.9351 14.1447 17.5667 13.7708C17.4768 13.6784 17.4157 13.5617 17.3909 13.4353C17.3661 13.3086 17.3785 13.1776 17.4266 13.0581C17.4716 12.942 17.5502 12.842 17.6524 12.7708C17.7545 12.6997 17.8755 12.6605 17.9999 12.6584C18.5304 12.6584 19.0392 12.4478 19.4141 12.0729C19.7893 11.698 20 11.1897 20 10.6596V9.32719C20 8.7971 19.7893 8.2888 19.4141 7.91393C19.0392 7.5392 18.5304 7.32861 17.9999 7.32861L18 7.32857ZM18.6665 10.6596H18.6667C18.6667 10.8363 18.5964 11.0058 18.4714 11.1307C18.3463 11.2557 18.1768 11.3259 17.9999 11.3259C17.6063 11.3208 17.2202 11.4354 16.8929 11.6542C16.5655 11.8731 16.3123 12.186 16.1667 12.5518C16.0172 12.9146 15.978 13.3135 16.0539 13.6984C16.1297 14.0836 16.3174 14.4378 16.5933 14.717C16.7116 14.8408 16.7774 15.0054 16.7774 15.1767C16.7774 15.3477 16.7116 15.5124 16.5933 15.6363L15.6333 16.5957C15.5094 16.7137 15.3447 16.7797 15.1733 16.7797C15.0021 16.7797 14.8374 16.7137 14.7133 16.5957C14.338 16.2377 13.8382 16.0395 13.3193 16.043C12.8004 16.0465 12.3032 16.2513 11.9327 16.6143C11.5622 16.9771 11.3473 17.4698 11.3334 17.988C11.3334 18.1647 11.2631 18.3342 11.1381 18.4591C11.0131 18.5841 10.8435 18.6544 10.6667 18.6544H9.33336C9.15654 18.6544 8.987 18.5841 8.86195 18.4591C8.7369 18.3342 8.66677 18.1647 8.66677 17.988C8.66991 17.595 8.55463 17.21 8.33579 16.8832C8.11696 16.5564 7.80484 16.303 7.44014 16.1561C7.07823 15.9994 6.67727 15.9564 6.29042 16.0324C5.90353 16.1086 5.54889 16.3004 5.27349 16.5824C5.14943 16.7005 4.98469 16.7663 4.81351 16.7663C4.64214 16.7663 4.4774 16.7005 4.35335 16.5824L3.3935 15.6364C3.27524 15.5124 3.20924 15.3478 3.20924 15.1767C3.20924 15.0055 3.27524 14.8408 3.3935 14.717C3.6694 14.4378 3.85696 14.0836 3.93288 13.6985C4.0088 13.3135 3.9696 12.9147 3.82007 12.5518C3.67534 12.1882 3.42409 11.8768 3.09938 11.6581C2.77469 11.4394 2.3916 11.3237 2.00009 11.326C1.82327 11.326 1.65373 11.2557 1.52868 11.1308C1.40362 11.0058 1.33333 10.8364 1.33333 10.6597V9.32724C1.33333 9.15053 1.40363 8.9811 1.52868 8.85613C1.65372 8.73116 1.82326 8.66108 2.00009 8.66108C2.52228 8.65034 3.01965 8.43579 3.38571 8.06337C3.75192 7.69096 3.95752 7.19027 3.959 6.66827C3.96049 6.14626 3.75737 5.64444 3.3935 5.27003C3.27523 5.14605 3.20924 4.98142 3.20924 4.81035C3.20924 4.6391 3.27523 4.47447 3.3935 4.3505L4.35335 3.39129C4.4774 3.2731 4.64215 3.20715 4.8135 3.20715C4.9847 3.20715 5.14944 3.2731 5.27348 3.39129C5.64813 3.75494 6.1503 3.95794 6.67265 3.95642C7.195 3.95493 7.69602 3.74947 8.06868 3.3835C8.44134 3.01771 8.65604 2.52064 8.66679 1.99881C8.66679 1.8221 8.73692 1.65268 8.86197 1.5277C8.98702 1.40273 9.15656 1.33249 9.33339 1.33249H10.6667C10.8435 1.33249 11.0131 1.40274 11.1381 1.5277C11.2632 1.65267 11.3335 1.82209 11.3335 1.99881C11.3407 2.52229 11.5533 3.022 11.9253 3.39044C12.2975 3.75905 12.7993 3.96683 13.3232 3.96949C13.847 3.97214 14.351 3.76932 14.7268 3.40449C14.8507 3.28647 15.0154 3.22052 15.1868 3.22052C15.358 3.22052 15.5227 3.28647 15.6467 3.40449L16.6068 4.36388C16.7249 4.48785 16.7909 4.65248 16.7909 4.82355C16.7909 4.9948 16.7249 5.15943 16.6068 5.28323C16.2485 5.65845 16.0501 6.15798 16.0537 6.67635C16.0571 7.19489 16.2621 7.69176 16.6253 8.06202C16.9884 8.43228 17.4815 8.64716 18 8.66104C18.1768 8.66104 18.3464 8.73112 18.4714 8.85609C18.5965 8.98106 18.6668 9.15048 18.6668 9.32719L18.6665 10.6596Z" fill="white"/>
</svg>
