<svg width="20" height="20" viewBox="0 0 20 20" fill="none" xmlns="http://www.w3.org/2000/svg">
<path d="M19.8236 13.7429L17.563 12.6807V1.34227C17.563 1.24767 17.5342 1.15711 17.4828 1.09056C17.4315 1.02377 17.3619 0.986458 17.2893 0.986458H16.154V0.438116C16.153 0.25177 16.0428 0.0972706 15.9001 0.0825332C11.0728 -0.375012 9.34914 1.18899 8.78161 2.02607C8.21351 1.18777 6.48944 -0.376016 1.66309 0.0825332H1.66291C1.52047 0.0977452 1.41053 0.252007 1.40944 0.438116V0.986458H0.273194C0.122352 0.986458 0 1.14571 0 1.34228V15.0166C0 15.1214 0.0354273 15.2208 0.0969676 15.2883C0.158691 15.3556 0.239955 15.3845 0.319209 15.3674C0.365228 15.3572 4.80205 14.3986 8.71726 15.6344L8.72968 15.6374H8.74447C8.75634 15.6398 8.76821 15.641 8.78026 15.641H8.80875H8.84399C10.5584 15.1022 12.3723 14.9824 13.8742 15.0159L15.194 19.773H15.1941C15.2349 19.9071 15.3333 19.9964 15.444 20H15.4536C15.5621 20.0002 15.6604 19.9166 15.7038 19.7873L16.5944 17.1527L18.3223 19.4022V19.4025C18.4297 19.5396 18.6017 19.5396 18.7091 19.4025L19.5468 18.3122C19.6523 18.1724 19.6523 17.9483 19.5468 17.8085L17.8185 15.5634L19.8426 14.4042C19.9419 14.3426 20.0037 14.2102 19.9998 14.0674C19.996 13.9243 19.9273 13.7978 19.8251 13.7455L19.8236 13.7429ZM0.548823 14.6014V1.6986H1.40892V13.079C1.40892 13.1778 1.44051 13.2724 1.49639 13.3395C1.55227 13.4063 1.62678 13.4402 1.70238 13.4341C5.51502 13.0706 7.24778 13.9998 7.99764 14.7076C4.79751 13.9375 1.5626 14.4155 0.546266 14.6016L0.548823 14.6014ZM8.50976 14.32C7.84176 13.5872 6.38594 12.6404 3.32059 12.6404C2.89802 12.6404 2.44385 12.6604 1.95808 12.7003L1.9579 0.771117C7.16951 0.341853 8.3476 2.3876 8.50935 2.73486L8.50976 14.32ZM16.1561 1.69829H17.0182L17.018 12.4233L16.1559 12.0181L16.1561 1.69829ZM9.0544 2.73484C9.21637 2.38401 10.3935 0.339926 15.6058 0.771093L15.606 11.7608L13.1292 10.5992C13.0295 10.5517 12.9176 10.5838 12.8424 10.6815C12.7673 10.7794 12.7425 10.9249 12.7788 11.0549L13.2301 12.6812C10.8489 12.8609 9.6448 13.6763 9.05585 14.3228L9.0544 2.73484ZM9.56406 14.7097C10.1318 14.1737 11.2605 13.5122 13.4221 13.3794L13.6747 14.2883C12.4314 14.2684 10.9948 14.363 9.56421 14.7074L9.56406 14.7097ZM17.2309 15.1228C17.1484 15.1701 17.0891 15.2675 17.0724 15.3831C17.0558 15.4986 17.0839 15.6174 17.1479 15.7006L18.9654 18.0663L18.7401 18.3591L18.5147 18.6524L16.6974 16.2875C16.6336 16.2043 16.5423 16.1677 16.4536 16.1893C16.3648 16.2109 16.2899 16.2882 16.2536 16.3959L15.4775 18.6902L13.4897 11.5236L18.9935 14.1101L17.2309 15.1228Z" fill="black"/>
</svg>
