<svg width="50" height="50" viewBox="0 0 50 50" fill="none" xmlns="http://www.w3.org/2000/svg">
<path d="M49.5589 34.3572L43.9075 31.7016V3.35568C43.9075 3.11918 43.8354 2.89278 43.7071 2.72641C43.5788 2.55943 43.4049 2.46615 43.2232 2.46615H40.3849V1.09529C40.3826 0.629425 40.1069 0.243176 39.7503 0.206333C27.682 -0.93753 23.3729 2.97247 21.954 5.06518C20.5338 2.96943 16.2236 -0.94004 4.15772 0.206333H4.15727C3.80116 0.244363 3.52634 0.630018 3.52359 1.09529V2.46615H0.682984C0.30588 2.46615 0 2.86427 0 3.3557V37.5415C0 37.8036 0.0885682 38.052 0.242419 38.2207C0.396727 38.3889 0.599887 38.4614 0.798022 38.4186C0.91307 38.393 12.0051 35.9965 21.7931 39.0859L21.8242 39.0936H21.8612C21.8908 39.0996 21.9205 39.1025 21.9507 39.1025H22.0219H22.11C26.396 37.7554 30.9308 37.456 34.6856 37.5398L37.9849 49.4325H37.9853C38.0871 49.7676 38.3332 49.9911 38.6099 50H38.6341C38.9053 50.0006 39.1509 49.7914 39.2595 49.4682L41.4861 42.8819L45.8059 48.5056V48.5062C46.0743 48.849 46.5044 48.849 46.7728 48.5062L48.8669 45.7805C49.1308 45.4311 49.1308 44.8707 48.8669 44.5213L44.5462 38.9084L49.6065 36.0104C49.8549 35.8565 50.0092 35.5255 49.9996 35.1684C49.99 34.8107 49.8183 34.4945 49.5627 34.3638L49.5589 34.3572ZM1.37206 36.5034V4.24649H3.52229V32.6974C3.52229 32.9446 3.60127 33.1811 3.74098 33.3487C3.88067 33.5157 4.06695 33.6006 4.25594 33.5852C13.7875 32.6766 18.1195 34.9994 19.9941 36.769C11.9938 34.8438 3.90649 36.0387 1.36567 36.504L1.37206 36.5034ZM21.2744 35.7999C19.6044 33.9679 15.9649 31.6011 8.30148 31.6011C7.24505 31.6011 6.10963 31.651 4.8952 31.7508L4.89475 1.92779C17.9238 0.854634 20.869 5.969 21.2734 6.83715L21.2744 35.7999ZM40.3902 4.24573H42.5455L42.545 31.0583L40.3898 30.0452L40.3902 4.24573ZM22.636 6.83709C23.0409 5.96003 25.9838 0.849814 39.0146 1.92773L39.0151 29.4021L32.8231 26.4981C32.5739 26.3792 32.294 26.4595 32.1059 26.7037C31.9183 26.9485 31.8562 27.3122 31.947 27.6372L33.0751 31.7029C27.1223 32.1521 24.112 34.1908 22.6396 35.8071L22.636 6.83709ZM23.9101 36.7742C25.3296 35.4343 28.1514 33.7805 33.5553 33.4484L34.1867 35.7208C31.0786 35.6709 27.4871 35.9074 23.9105 36.7684L23.9101 36.7742ZM43.0774 37.807C42.871 37.9252 42.7226 38.1689 42.6811 38.4576C42.6395 38.7464 42.7099 39.0435 42.8696 39.2515L47.4136 45.1658L46.8502 45.8979L46.2868 46.6311L41.7434 40.7187C41.584 40.5107 41.3558 40.4192 41.1339 40.4733C40.912 40.5273 40.7249 40.7205 40.634 40.9896L38.6937 46.7256L33.7242 28.809L47.4837 35.2753L43.0774 37.807Z" fill="black"/>
</svg>
