<svg width="20" height="20" viewBox="0 0 20 20" fill="none" xmlns="http://www.w3.org/2000/svg">
<mask id="path-1-inside-1_67_115" fill="white">
<path d="M10.0057 0.854492C4.95849 0.854492 0.854492 4.95881 0.854492 10.0057C0.854492 15.0529 4.95881 19.1569 10.0057 19.1569C15.0525 19.1569 19.1568 15.0525 19.1568 10.0057C19.1568 4.95825 15.0525 0.854492 10.0057 0.854492ZM10.0057 18.6646C5.22955 18.6646 1.34737 14.7822 1.34737 10.0063C1.34737 5.23043 5.2298 1.348 10.0057 1.348C14.7815 1.348 18.664 5.23043 18.664 10.0063C18.664 14.7763 14.7754 18.6646 10.0057 18.6646Z"/>
</mask>
<path d="M10.0057 0.854492C4.95849 0.854492 0.854492 4.95881 0.854492 10.0057C0.854492 15.0529 4.95881 19.1569 10.0057 19.1569C15.0525 19.1569 19.1568 15.0525 19.1568 10.0057C19.1568 4.95825 15.0525 0.854492 10.0057 0.854492ZM10.0057 18.6646C5.22955 18.6646 1.34737 14.7822 1.34737 10.0063C1.34737 5.23043 5.2298 1.348 10.0057 1.348C14.7815 1.348 18.664 5.23043 18.664 10.0063C18.664 14.7763 14.7754 18.6646 10.0057 18.6646Z" fill="black"/>
<path d="M10.0057 0.854492V-2.14551C3.30157 -2.14551 -2.14551 3.30202 -2.14551 10.0057H0.854492H3.85449C3.85449 6.6156 6.61542 3.85449 10.0057 3.85449V0.854492ZM0.854492 10.0057H-2.14551C-2.14551 16.7098 3.30202 22.1569 10.0057 22.1569V19.1569V16.1569C6.6156 16.1569 3.85449 13.3959 3.85449 10.0057H0.854492ZM10.0057 19.1569V22.1569C16.7094 22.1569 22.1568 16.7094 22.1568 10.0057H19.1568H16.1568C16.1568 13.3957 13.3957 16.1569 10.0057 16.1569V19.1569ZM19.1568 10.0057H22.1568C22.1568 3.30127 16.7093 -2.14551 10.0057 -2.14551V0.854492V3.85449C13.3958 3.85449 16.1568 6.61522 16.1568 10.0057H19.1568ZM10.0057 18.6646V15.6646C6.88646 15.6646 4.34737 13.1254 4.34737 10.0063H1.34737H-1.65263C-1.65263 16.439 3.57263 21.6646 10.0057 21.6646V18.6646ZM1.34737 10.0063H4.34737C4.34737 6.88728 6.88665 4.348 10.0057 4.348V1.348V-1.652C3.57294 -1.652 -1.65263 3.57357 -1.65263 10.0063H1.34737ZM10.0057 1.348V4.348C13.1247 4.348 15.664 6.88728 15.664 10.0063H18.664H21.664C21.664 3.57357 16.4384 -1.652 10.0057 -1.652V1.348ZM18.664 10.0063H15.664C15.664 13.1194 13.1186 15.6646 10.0057 15.6646V18.6646V21.6646C16.4322 21.6646 21.664 16.4332 21.664 10.0063H18.664Z" fill="black" mask="url(#path-1-inside-1_67_115)"/>
</svg>
